<?xml version="1.0" encoding="UTF-8"?>
<!DOCTYPE svg PUBLIC "-//W3C//DTD SVG 1.1//EN" "http://www.w3.org/Graphics/SVG/1.1/DTD/svg11.dtd">
<!-- Creator: CorelDRAW 2019 (64-Bit) -->
<svg xmlns="http://www.w3.org/2000/svg" xml:space="preserve" width="74.134mm" height="36.925mm" version="1.1" style="shape-rendering:geometricPrecision; text-rendering:geometricPrecision; image-rendering:optimizeQuality; fill-rule:evenodd; clip-rule:evenodd"
viewBox="0 0 7413.4 3692.5"
 xmlns:xlink="http://www.w3.org/1999/xlink"
 xmlns:xodm="http://www.corel.com/coreldraw/odm/2003">
 <defs>
  <style type="text/css">
   <![CDATA[
    .fil0 {fill:#E31E24}
    .fil1 {fill:#FEFEFE;fill-rule:nonzero}
   ]]>
  </style>
 </defs>
 <g id="Слой_x0020_1">
  <metadata id="CorelCorpID_0Corel-Layer"/>
  <polygon class="fil0" points="49.9,3387.25 7363.49,3387.25 7363.49,3692.51 49.9,3692.51 "/>
  <path class="fil1" d="M1015.7 976.84l-660.48 0 0 -233.12 601.29 0 0 -247.91 -601.29 0 0 -233.12 654.93 0 0 -262.71 -960.2 0 0 1239.56 965.75 0 0 -262.7zm-395.92 1204.55l0 259.02 379.28 0c-46.26,136.92 -164.66,222.01 -327.47,222.01 -207.22,0 -364.47,-159.1 -364.47,-370.02 0,-209.06 153.55,-368.17 355.22,-368.17 112.65,0 223.67,32.47 296.57,152.14l286.01 -112.76c-101.48,-208.11 -327.81,-318.74 -582.58,-318.74 -371.87,0 -662.34,284.91 -662.34,647.53 0,364.47 292.32,647.53 667.89,647.53 373.71,0 641.98,-270.1 641.98,-645.68 0,-31.45 -1.85,-68.45 -7.4,-112.86 -228.58,0 -506.88,0 -682.69,0zm2212.73 730.8l-388.51 -440.33c199.8,-44.39 325.61,-190.55 325.61,-394.07 0,-242.37 -177.62,-405.17 -445.87,-405.17l-627.19 0 0 1239.57 305.26 0 0 -425.52 88.81 0 373.72 425.52 368.17 0zm-830.7 -680.84l0 -297.87 288.63 0c109.15,0 179.44,59.2 179.44,148.01 0,90.65 -70.29,149.86 -179.44,149.86l-288.63 0zm1765.01 -586.48c-370.02,0 -660.48,286.76 -660.48,649.38 0,360.77 290.46,645.68 660.48,645.68 370.03,0 660.49,-284.91 660.49,-645.68 0,-362.62 -290.46,-649.38 -660.49,-649.38zm0 1015.7c-201.66,0 -355.23,-155.41 -355.23,-366.32 0,-212.76 153.57,-370.02 355.23,-370.02 201.66,0 355.22,157.26 355.22,370.02 0,210.91 -153.56,366.32 -355.22,366.32zm2155.39 -987.95l-305.28 0 0 680.83c0,188.73 -98.06,305.27 -244.22,305.27 -155.4,0 -257.16,-116.54 -257.16,-305.27l0 -680.83 -305.26 0 0 680.83c0,355.23 225.7,586.48 562.42,586.48 329.32,0 549.5,-231.25 549.5,-586.48l0 -680.83zm425.52 0l0 1239.57 305.27 0 0 -379.27 292.31 0c286.77,0 468.08,-172.07 468.08,-432.93 0,-255.32 -175.76,-427.37 -455.12,-427.37l-610.54 0zm305.27 604.99l0 -344.13 270.1 0c118.41,0 190.57,70.31 190.57,170.21 0,105.47 -72.16,173.92 -190.57,173.92l-270.1 0zm-3550.38 -2277.63l-314.51 0 -216.46 780.74 -212.76 -780.74 -290.47 0 -212.77 780.74 -216.46 -780.74 -312.66 0 353.36 1239.56 325.62 0 209.07 -765.94 207.21 765.94 327.47 0 353.36 -1239.56zm1481.95 1239.56l-518.03 -1239.56 -312.67 0 -518.03 1239.56 327.47 0 86.95 -225.7 521.74 0 86.96 225.7 325.61 0zm-514.33 -488.42l-316.37 0 157.26 -407.02 159.11 407.02zm1972.21 488.42l-388.51 -440.31c199.81,-44.4 325.61,-190.56 325.61,-394.08 0,-242.36 -177.6,-405.17 -445.87,-405.17l-627.19 0 0 1239.56 305.27 0 0 -425.52 88.8 0 373.72 425.52 368.17 0zm-830.69 -680.83l0 -297.87 288.62 0c109.15,0 179.45,59.21 179.45,148.01 0,90.65 -70.3,149.86 -179.45,149.86l-288.62 0zm2151.68 -292.32l0 -266.41 -1106.36 0 0 266.41 401.47 0 0 973.15 303.42 0 0 -973.15 401.47 0z"/>
 </g>
</svg>
